<svg width="18" height="18" viewBox="0 0 18 18" fill="none" xmlns="http://www.w3.org/2000/svg">
<path d="M0.5 14.25C0.5 14.152 0.532057 14.0747 0.566171 14.032C0.582165 14.012 0.595028 14.0038 0.600285 14.0011C0.601299 14.0006 0.602072 14.0002 0.602616 14H2.99738C2.99793 14.0002 2.9987 14.0006 2.99972 14.0011C3.00497 14.0038 3.01784 14.012 3.03383 14.032C3.06794 14.0747 3.1 14.152 3.1 14.25V17.25C3.1 17.348 3.06794 17.4253 3.03383 17.468C3.01784 17.488 3.00497 17.4962 2.99971 17.4989C2.9987 17.4994 2.99793 17.4998 2.99738 17.5H0.602618C0.602073 17.4998 0.6013 17.4994 0.600285 17.4989C0.595028 17.4962 0.582164 17.488 0.56617 17.468C0.532058 17.4253 0.5 17.348 0.5 17.25V14.25ZM5.3 9.75C5.3 9.65204 5.33206 9.57466 5.36617 9.53202C5.38216 9.51202 5.39503 9.50383 5.40029 9.5011C5.4013 9.50058 5.40207 9.50023 5.40262 9.5H7.79738C7.79793 9.50023 7.7987 9.50058 7.79972 9.5011C7.80497 9.50383 7.81783 9.51202 7.83383 9.53202C7.86794 9.57466 7.9 9.65204 7.9 9.75V17.25C7.9 17.348 7.86794 17.4253 7.83383 17.468C7.81784 17.488 7.80497 17.4962 7.79971 17.4989C7.7987 17.4994 7.79793 17.4998 7.79738 17.5H5.40262C5.40207 17.4998 5.4013 17.4994 5.40029 17.4989C5.39503 17.4962 5.38216 17.488 5.36617 17.468C5.33206 17.4253 5.3 17.348 5.3 17.25V9.75ZM10.1 5.25C10.1 5.15203 10.1321 5.07466 10.1662 5.03202C10.1822 5.01202 10.195 5.00383 10.2003 5.0011C10.2013 5.00058 10.2021 5.00023 10.2026 5H12.5974C12.5979 5.00023 12.5987 5.00058 12.5997 5.0011C12.605 5.00383 12.6178 5.01202 12.6338 5.03202C12.6679 5.07466 12.7 5.15204 12.7 5.25V17.25C12.7 17.348 12.6679 17.4253 12.6338 17.468C12.6178 17.488 12.605 17.4962 12.5997 17.4989C12.5987 17.4994 12.5979 17.4998 12.5974 17.5H10.2026C10.2021 17.4998 10.2013 17.4994 10.2003 17.4989C10.195 17.4962 10.1822 17.488 10.1662 17.468C10.1321 17.4253 10.1 17.348 10.1 17.25V5.25ZM14.9 0.75C14.9 0.652034 14.9321 0.574659 14.9662 0.532018C14.9822 0.512025 14.995 0.503826 15.0003 0.501104C15.0013 0.500579 15.0021 0.500227 15.0026 0.5H17.3974C17.3979 0.500227 17.3987 0.500579 17.3997 0.501104C17.405 0.503826 17.4178 0.512024 17.4338 0.532015C17.4679 0.574659 17.5 0.652034 17.5 0.75V17.25C17.5 17.348 17.4679 17.4253 17.4338 17.468C17.4178 17.488 17.405 17.4962 17.3997 17.4989C17.3987 17.4994 17.3979 17.4998 17.3974 17.5H15.0026C15.0021 17.4998 15.0013 17.4994 15.0003 17.4989C14.995 17.4962 14.9822 17.488 14.9662 17.468C14.9321 17.4253 14.9 17.348 14.9 17.25V0.75Z" stroke="currentColor"/>
</svg>
