<svg width="20" height="22" viewBox="0 0 20 22" fill="none" xmlns="http://www.w3.org/2000/svg">
<path fill-rule="evenodd" clip-rule="evenodd" d="M10.4901 5.9206C11.8045 5.61141 13.1151 5.427 14.4544 5.5059C16.6217 5.63373 18.3842 6.3723 19.3789 8.19317C19.8684 9.08954 20.0053 10.0556 19.9998 11.0441C19.9916 12.5998 19.5207 14.0769 19.042 15.5522C18.6114 16.8776 18.0776 18.1679 17.2515 19.3447C16.5429 20.3536 15.6576 21.1989 14.3862 21.6604C13.0584 22.1427 11.7147 22.0583 10.3703 21.7301C10.139 21.6736 9.9373 21.6757 9.70326 21.7314C8.29555 22.0662 6.89024 22.1525 5.51179 21.6115C4.41901 21.1827 3.61878 20.4588 2.96036 19.5958C2.07753 18.4376 1.52167 17.1465 1.06666 15.8204C0.674293 14.6779 0.314961 13.5252 0.123251 12.3392C-0.0708681 11.1404 -0.0688005 9.94401 0.372098 8.78402C1.06838 6.9503 2.55801 5.93222 4.66682 5.60101C6.23286 5.35482 7.7779 5.51966 9.30297 5.87075C9.54562 5.92641 9.6413 5.90683 9.64819 5.65759C9.65438 5.42455 9.7301 5.19304 9.78001 4.93768C9.40519 4.93217 9.03071 4.91994 8.66072 4.8444C6.64346 4.43338 5.26604 2.77122 5.42712 0.929861C5.46876 0.452165 5.96061 0.0289053 6.50029 0.00535692C8.59292 -0.0857785 10.2884 0.991944 10.8632 2.77856C10.8693 2.79722 10.8783 2.81465 10.8965 2.85716C11.3588 2.36203 11.8912 1.98006 12.5383 1.73081C13.141 1.49869 13.7746 1.40175 14.4258 1.38768C14.7228 1.38126 14.9073 1.52255 14.9225 1.7458C14.9386 1.98709 14.78 2.14979 14.4616 2.16019C13.8982 2.17854 13.3506 2.24643 12.8336 2.45653C11.7271 2.90579 11.1292 3.72601 10.7658 4.71076C10.6226 5.09854 10.5234 5.49673 10.4901 5.9206ZM19.1384 10.9318C19.1456 10.6422 19.1301 10.3189 19.0771 9.99783C18.863 8.69992 18.2696 7.60446 16.9535 6.90718C16.1106 6.46068 15.1775 6.29401 14.21 6.26159C12.8477 6.21602 11.5285 6.44478 10.2309 6.78791C10.0681 6.83103 9.92801 6.824 9.76968 6.7821C8.06047 6.33407 6.33026 6.06525 4.55221 6.4038C2.95795 6.70748 1.81698 7.50323 1.2477 8.8932C0.814371 9.95227 0.804391 11.0422 0.968222 12.1374C1.15546 13.3879 1.54439 14.5993 1.96498 15.8002C2.39177 17.0189 2.91285 18.2043 3.74268 19.2612C5.01169 20.8778 6.7154 21.5457 8.90682 21.0928C9.58624 20.9524 10.2477 20.7463 10.9368 21.0451C11.0449 21.0919 11.176 21.0992 11.2979 21.1194C13.1007 21.4179 14.6299 20.9998 15.8418 19.749C16.2021 19.3771 16.5105 18.9731 16.7766 18.5447C17.5768 17.2556 18.0721 15.8644 18.4909 14.4494C18.8303 13.3068 19.1587 12.1615 19.1384 10.9318ZM10.1225 3.65689C10.1022 2.0137 8.52718 0.694683 6.6679 0.763799C6.39944 0.773891 6.28793 0.874507 6.27794 1.11641C6.21117 2.75593 7.67533 4.13306 9.52841 4.17434C10.0688 4.18596 10.1283 4.13428 10.1225 3.65689Z" fill="currentColor" stroke="currentColor" stroke-width="0.5"/>
<path fill-rule="evenodd" clip-rule="evenodd" d="M19.1384 10.9318C19.1591 12.1615 18.8304 13.3068 18.492 14.4496C18.0728 15.8647 17.5779 17.2556 16.7777 18.5449C16.512 18.9734 16.2032 19.3774 15.8429 19.7493C14.631 21.0004 13.1018 21.4184 11.2989 21.1197C11.1771 21.0995 11.0463 21.0921 10.9379 21.0453C10.2489 20.7462 9.58698 20.9527 8.90791 21.0931C6.7165 21.5457 5.01279 20.8781 3.74378 19.2615C2.91396 18.2042 2.39286 17.0192 1.96607 15.8005C1.54514 14.5995 1.15621 13.3881 0.969321 12.1376C0.805146 11.0422 0.81547 9.95221 1.2488 8.89345C1.81773 7.50348 2.95904 6.70803 4.5533 6.40404C6.33135 6.0655 8.06156 6.33401 9.77077 6.78235C9.9291 6.82394 10.0692 6.83097 10.232 6.78816C11.5296 6.44502 12.8488 6.21627 14.2111 6.26184C15.1786 6.29425 16.1113 6.46093 16.9546 6.90743C18.2707 7.60501 18.8641 8.70017 19.0782 9.99808C19.1298 10.3189 19.1456 10.6418 19.1384 10.9318Z" fill="none" stroke="currentColor" stroke-width="0.5"/>
<path fill-rule="evenodd" clip-rule="evenodd" d="M10.1221 3.65684C10.1283 4.13423 10.0688 4.18591 9.52808 4.17398C7.67465 4.133 6.21049 2.75588 6.27761 1.11605C6.28759 0.874148 6.3991 0.773532 6.66757 0.763439C8.52685 0.694629 10.1018 2.01365 10.1221 3.65684Z" fill="currentColor" stroke="currentColor" stroke-width="0.5"/>
<path d="M5.12656 7.33349C4.7814 7.33001 4.44121 7.40675 4.13972 7.55609C2.82024 8.17527 2.10498 8.9586 2.10498 11.3277C2.10498 11.4518 2.16043 11.5707 2.25913 11.6584C2.35784 11.7461 2.49171 11.7954 2.6313 11.7954C2.77088 11.7954 2.90475 11.7461 3.00346 11.6584C3.10216 11.5707 3.15761 11.4518 3.15761 11.3277C3.15761 9.07364 3.8734 8.73833 4.6313 8.38151C4.7814 8.3038 4.95289 8.26477 5.12656 8.2688C5.26615 8.2688 5.40002 8.21953 5.49872 8.13183C5.59742 8.04413 5.65287 7.92517 5.65287 7.80114C5.65287 7.67711 5.59742 7.55816 5.49872 7.47046C5.40002 7.38276 5.26615 7.33349 5.12656 7.33349Z" fill="currentColor" stroke="currentColor" stroke-width="0.5"/>
</svg>
