<svg width="28" height="30" viewBox="0 0 28 30" fill="none" xmlns="http://www.w3.org/2000/svg">
<path d="M6.08696 29H21.913C23.2617 28.9986 24.5546 28.5557 25.5082 27.7683C26.4619 26.981 26.9984 25.9135 27 24.8V9.86667C26.9984 8.75317 26.4619 7.68568 25.5082 6.89832C24.5546 6.11096 23.2617 5.66803 21.913 5.66667H21.3478V4.73333H21.913C22.2129 4.73333 22.5004 4.635 22.7124 4.45997C22.9244 4.28493 23.0435 4.04754 23.0435 3.8V2.43267C23.043 2.05281 22.8601 1.68862 22.5347 1.42003C22.2094 1.15143 21.7683 1.00037 21.3083 1H6.69174C6.23167 1.00037 5.79057 1.15143 5.46525 1.42003C5.13993 1.68862 4.95697 2.05281 4.95652 2.43267V3.8C4.95652 4.04754 5.07562 4.28493 5.28762 4.45997C5.49962 4.635 5.78715 4.73333 6.08696 4.73333H6.65217V5.66667H6.08696C4.73832 5.66803 3.44538 6.11096 2.49175 6.89832C1.53812 7.68568 1.00165 8.75317 1 9.86667V24.8C1.00165 25.9135 1.53812 26.981 2.49175 27.7683C3.44538 28.5557 4.73832 28.9986 6.08696 29ZM6.08696 3.8V2.43267C6.08711 2.30027 6.15087 2.17334 6.26426 2.07972C6.37764 1.9861 6.53139 1.93346 6.69174 1.93333H21.3083C21.4686 1.93346 21.6224 1.9861 21.7357 2.07972C21.8491 2.17334 21.9129 2.30027 21.913 2.43267V3.8H6.08696ZM6.08696 6.6H7.21739C7.3673 6.6 7.51106 6.55083 7.61706 6.46332C7.72306 6.3758 7.78261 6.2571 7.78261 6.13333V4.73333H20.2174V5.66667H16.2609C16.111 5.66667 15.9672 5.71583 15.8612 5.80335C15.7552 5.89087 15.6957 6.00957 15.6957 6.13333C15.6957 6.2571 15.7552 6.3758 15.8612 6.46332C15.9672 6.55083 16.111 6.6 16.2609 6.6H21.913C22.7641 6.6015 23.5919 6.82923 24.274 7.24948C24.956 7.66973 25.4561 8.26015 25.7 8.93333H2.3C2.54394 8.26015 3.04395 7.66973 3.72601 7.24948C4.40807 6.82923 5.23591 6.6015 6.08696 6.6ZM2.13043 9.86667H25.8696V24.3333H2.13043V9.86667ZM25.8243 25.2667C25.6885 26.0435 25.2185 26.754 24.5003 27.2681C23.7821 27.7823 22.8637 28.0657 21.913 28.0667H6.08696C5.13635 28.0657 4.21792 27.7823 3.49969 27.2681C2.78146 26.754 2.31145 26.0435 2.17565 25.2667H25.8243Z" fill="currentColor" stroke="currentColor" stroke-width="0.6"/>
<path d="M14 6.60002C14.3122 6.60002 14.5652 6.39109 14.5652 6.13335C14.5652 5.87562 14.3122 5.66669 14 5.66669C13.6879 5.66669 13.4348 5.87562 13.4348 6.13335C13.4348 6.39109 13.6879 6.60002 14 6.60002Z" fill="currentColor"/>
</svg>
