<svg width="18" height="18" viewBox="0 0 18 18" fill="none" xmlns="http://www.w3.org/2000/svg">
<path d="M11.6173 15.57C11.4748 15.57 11.3323 15.5175 11.2198 15.405C11.0023 15.1875 11.0023 14.8275 11.2198 14.61L14.9773 10.8525C15.1948 10.635 15.5548 10.635 15.7723 10.8525C15.9898 11.07 15.9898 11.43 15.7723 11.6475L12.0148 15.405C11.9023 15.51 11.7598 15.57 11.6173 15.57Z" fill="currentColor"/>
<path d="M15.375 11.805H2.625C2.3175 11.805 2.0625 11.55 2.0625 11.2425C2.0625 10.935 2.3175 10.68 2.625 10.68H15.375C15.6825 10.68 15.9375 10.935 15.9375 11.2425C15.9375 11.55 15.6825 11.805 15.375 11.805Z" fill="currentColor"/>
<path d="M2.62508 7.31999C2.48258 7.31999 2.34008 7.26749 2.22758 7.15499C2.01008 6.93749 2.01008 6.57749 2.22758 6.35999L5.98508 2.60249C6.20258 2.38499 6.56258 2.38499 6.78008 2.60249C6.99758 2.81999 6.99758 3.17999 6.78008 3.39749L3.02258 7.15499C2.91758 7.25999 2.76758 7.31999 2.62508 7.31999Z" fill="currentColor"/>
<path d="M15.375 7.32001H2.625C2.3175 7.32001 2.0625 7.06501 2.0625 6.75751C2.0625 6.45001 2.3175 6.19501 2.625 6.19501H15.375C15.6825 6.19501 15.9375 6.45001 15.9375 6.75751C15.9375 7.06501 15.6825 7.32001 15.375 7.32001Z" fill="currentColor"/>
</svg>
