<svg width="18" height="18" viewBox="0 0 18 18" fill="none" xmlns="http://www.w3.org/2000/svg">
<g clip-path="url(#clip0_137_1241)">
<path d="M11.9849 16.0205C13.5395 15.0307 14.4636 13.3516 14.4636 11.5045L11.9849 16.0205ZM11.9849 16.0205L6.27303 16.0423C4.71997 15.0682 3.75971 13.3395 3.75971 11.5045C3.75971 10.1618 4.26467 8.87486 5.18245 7.88041C5.32264 7.72852 5.3307 7.49695 5.20145 7.33563L11.9849 16.0205ZM4.551 5.59242C4.551 6.1982 4.77322 6.80093 5.20142 7.3356L4.551 5.59242ZM4.551 5.59242C4.551 4.66774 5.04809 3.81801 5.87276 3.19443M4.551 5.59242L5.87276 3.19443M5.87276 3.19443C6.69744 2.57082 7.84267 2.18029 9.11173 2.18029M5.87276 3.19443L9.11173 2.18029M9.11173 2.18029C10.3807 2.18029 11.5258 2.57082 12.3504 3.19442M9.11173 2.18029L12.3504 3.19442M12.3504 3.19442C13.175 3.81801 13.6721 4.66773 13.6721 5.59242M12.3504 3.19442L13.6721 5.59242M13.6721 5.59242C13.6721 6.19844 13.45 6.80134 13.0219 7.33559M13.6721 5.59242L13.0219 7.33559M13.0219 7.33559C12.8926 7.49691 12.9006 7.72849 13.0408 7.8804M13.0219 7.33559L13.0408 7.8804M13.0408 7.8804C13.9582 8.87467 14.4634 10.1616 14.4636 11.5045L13.0408 7.8804ZM5.94145 16.8197L5.94156 16.8198C6.00651 16.8585 6.0806 16.8788 6.15597 16.8788H6.15598H6.15599H6.156H6.15601H6.15602H6.15602H6.15603H6.15604H6.15605H6.15606H6.15607H6.15607H6.15608H6.15609H6.1561H6.15611H6.15612H6.15612H6.15613H6.15614H6.15615H6.15616H6.15617H6.15617H6.15618H6.15619H6.1562H6.15621H6.15622H6.15622H6.15623H6.15624H6.15625H6.15626H6.15627H6.15628H6.15628H6.15629H6.1563H6.15631H6.15632H6.15633H6.15633H6.15634H6.15635H6.15636H6.15637H6.15638H6.15638H6.15639H6.1564H6.15641H6.15642H6.15643H6.15643H6.15644H6.15645H6.15646H6.15647H6.15648H6.15648H6.15649H6.1565H6.15651H6.15652H6.15653H6.15653H6.15654H6.15655H6.15656H6.15657H6.15658H6.15659H6.15659H6.1566H6.15661H6.15662H6.15663H6.15664H6.15664H6.15665H6.15666H6.15667H6.15668H6.15669H6.15669H6.1567H6.15671H6.15672H6.15673H6.15674H6.15674H6.15675H6.15676H6.15677H6.15678H6.15679H6.15679H6.1568H6.15681H6.15682H6.15683H6.15684H6.15684H6.15685H6.15686H6.15687H6.15688H6.15689H6.1569H6.1569H6.15691H6.15692H6.15693H6.15694H6.15695H6.15695H6.15696H6.15697H6.15698H6.15699H6.157H6.157H6.15701H6.15702H6.15703H6.15704L6.15705 16.8788L6.15762 16.8788L12.1066 16.856C12.1066 16.856 12.1066 16.856 12.1066 16.856C12.1822 16.8557 12.2568 16.8349 12.3221 16.795C14.1861 15.6619 15.2995 13.6833 15.2995 11.5043V11.5043C15.2994 10.0654 14.7984 8.68289 13.8829 7.57416C14.2916 6.96518 14.5081 6.28625 14.5081 5.59224C14.5081 3.21732 12.0508 1.34413 9.11173 1.34413C6.17246 1.34413 3.71502 3.21731 3.71502 5.59224C3.71502 6.28625 3.93148 6.96518 4.34035 7.57417C3.42453 8.68308 2.92373 10.0658 2.92373 11.5045C2.92373 13.671 4.07996 15.7071 5.94145 16.8197Z" fill="currentColor" stroke="currentColor" stroke-width="0.3"/>
<path d="M11.5136 6.99987C11.5271 6.99987 11.5405 6.99874 11.5539 6.99638C11.6085 6.98667 11.6563 6.95766 11.6871 6.91596C11.8947 6.63336 12 6.33184 12 6.01949C12 4.90592 10.6542 3.99999 9.00021 3.99999C7.34622 3.99999 6.00028 4.90592 6 6.01949C6 6.33172 6.10518 6.63336 6.31248 6.91596C6.3431 6.95766 6.39105 6.98667 6.44565 6.99638C6.50024 7.00621 6.55692 6.99576 6.60292 6.96762C7.31185 6.53452 8.14065 6.30558 8.99979 6.30558C9.85893 6.30558 10.6879 6.53452 11.3967 6.96762C11.4314 6.98866 11.4722 6.99987 11.5136 6.99987ZM6.55692 6.5497C6.46311 6.37803 6.41558 6.20026 6.41558 6.01949C6.41585 5.11183 7.57528 4.37347 9.00007 4.37347C10.425 4.37347 11.5841 5.11183 11.5841 6.01949C11.5841 6.20038 11.5366 6.37803 11.4427 6.54983C10.7077 6.14498 9.8678 5.9321 8.99965 5.9321C8.13178 5.93198 7.2919 6.14498 6.55692 6.5497Z" fill="currentColor" stroke="currentColor" stroke-width="0.6"/>
<path d="M9.26799 7.99999C9.12006 7.99999 9 8.11987 9 8.26798C9 8.41609 9.12006 8.53597 9.26799 8.53597C10.8877 8.53597 12.2055 9.8686 12.2055 11.5067C12.2055 11.6547 12.3256 11.7747 12.4735 11.7747C12.6214 11.7747 12.7415 11.6547 12.7415 11.5067C12.7417 9.57309 11.1834 7.99999 9.26799 7.99999Z" fill="currentColor" stroke="currentColor" stroke-width="0.6"/>
</g>
<defs>
<clipPath id="clip0_137_1241">
<rect width="18" height="17.9998" fill="currentColor"/>
</clipPath>
</defs>
</svg>
