<svg width="18" height="22" viewBox="0 0 18 22" fill="none" xmlns="http://www.w3.org/2000/svg">
<path fill-rule="evenodd" clip-rule="evenodd" d="M11.9304 3.42109C12.6176 2.53391 13.1386 1.27997 12.9502 0C11.8269 0.0780621 10.514 0.796738 9.74787 1.73348C9.04952 2.58225 8.47556 3.84488 8.69972 5.07032C9.92769 5.10874 11.1951 4.3727 11.9304 3.42109ZM18 15.4612C17.5086 16.5566 17.2721 17.046 16.639 18.0162C15.7559 19.3705 14.5107 21.0569 12.9662 21.0693C11.5954 21.0842 11.2419 20.171 9.38083 20.1821C7.51979 20.192 7.13182 21.0866 5.75851 21.073C4.21524 21.0594 3.03531 19.5378 2.15221 18.1835C-0.318503 14.3993 -0.578384 9.95724 0.945181 7.59431C2.02904 5.9166 3.73859 4.93525 5.34468 4.93525C6.97909 4.93525 8.00753 5.8373 9.36113 5.8373C10.6741 5.8373 11.4734 4.93278 13.364 4.93278C14.7952 4.93278 16.3114 5.71711 17.3903 7.07018C13.853 9.02049 14.4257 14.102 18 15.4612Z" fill="white"/>
</svg>
