<svg width="22" height="22" viewBox="0 0 22 22" fill="none" xmlns="http://www.w3.org/2000/svg">
<mask id="path-1-inside-1_160_216" fill="white">
<path d="M15.3111 4.30273C14.5645 3.20535 13.7379 2.00502 13.7379 0.622059C13.7379 0.513451 13.4526 0.87608 13.4342 0.90001C13.2302 1.18984 13.0771 1.51227 12.9813 1.85348C12.5668 3.29631 13.192 4.86324 12.9758 6.34661C12.7981 7.56664 11.9092 8.81189 10.7485 9.27138C9.26693 9.85785 8.20696 8.88646 7.97658 7.44369C7.76217 6.1008 8.10635 4.60285 7.19596 3.44389C7.1757 3.41811 6.85726 3.01315 6.85726 3.13469C6.81894 4.50134 6.11002 5.71814 5.44088 6.86773C3.43033 10.3218 2.35817 15.3174 5.09507 18.6978C8.18145 22.5099 14.3097 22.2266 17.0973 18.223C17.9814 16.9425 18.4815 15.4362 18.5388 13.8812C18.7048 10.5284 17.1305 6.97655 15.3111 4.30273Z"/>
</mask>
<path d="M15.3111 4.30273L14.1537 5.09031L14.1537 5.09031L15.3111 4.30273ZM13.7379 0.622059L12.3379 0.622059L12.3379 0.62207L13.7379 0.622059ZM13.4342 0.90001L12.3243 0.0466656L12.3063 0.0701375L12.2892 0.0943514L13.4342 0.90001ZM12.9813 1.85348L14.3269 2.24008L14.3293 2.23174L12.9813 1.85348ZM12.9758 6.34661L14.3612 6.54845L14.3612 6.54844L12.9758 6.34661ZM10.7485 9.27138L10.2332 7.96965L10.2332 7.96966L10.7485 9.27138ZM7.97658 7.44369L6.5941 7.66443L6.5941 7.66444L7.97658 7.44369ZM7.19596 3.44389L8.29691 2.57907L8.2968 2.57893L7.19596 3.44389ZM6.85726 3.13469L8.25671 3.17393L8.25726 3.15431V3.13469H6.85726ZM5.44088 6.86773L6.65083 7.57202L6.65084 7.57201L5.44088 6.86773ZM5.09507 18.6978L6.18315 17.8169L6.18315 17.8169L5.09507 18.6978ZM17.0973 18.223L18.2462 19.0229L18.2493 19.0184L17.0973 18.223ZM18.5388 13.8812L17.1405 13.8119L17.1401 13.8208L17.1398 13.8296L18.5388 13.8812ZM16.4686 3.51515C15.6623 2.33009 15.1379 1.49558 15.1379 0.622049L12.3379 0.62207C12.3379 2.51446 13.4666 4.08061 14.1537 5.09031L16.4686 3.51515ZM15.1379 0.622059C15.1379 0.500857 15.1249 0.185279 14.9172 -0.142442C14.6531 -0.55904 14.2198 -0.773057 13.8026 -0.796042C13.4737 -0.814161 13.2279 -0.712556 13.1342 -0.67015C13.0191 -0.618068 12.9331 -0.560994 12.8853 -0.52718C12.7237 -0.413047 12.5988 -0.275925 12.5624 -0.236275C12.4486 -0.112566 12.3442 0.0207385 12.3243 0.0466656L14.544 1.75335C14.5425 1.75535 14.59 1.69538 14.6235 1.65894C14.6606 1.61852 14.6083 1.68385 14.5008 1.75979C14.4664 1.78406 14.3928 1.83368 14.2886 1.88081C14.2059 1.91826 13.9697 2.01741 13.6486 1.99972C13.2392 1.97717 12.812 1.76647 12.5522 1.35648C12.3487 1.03537 12.3379 0.729685 12.3379 0.622059H15.1379ZM12.2892 0.0943514C11.9939 0.514098 11.7721 0.981054 11.6334 1.47522L14.3293 2.23174C14.3821 2.04348 14.4666 1.86558 14.5791 1.70567L12.2892 0.0943514ZM11.6358 1.46689C11.3457 2.47655 11.4347 3.4764 11.5114 4.22725C11.597 5.06439 11.6674 5.61702 11.5905 6.14478L14.3612 6.54844C14.5004 5.59282 14.3662 4.62031 14.2969 3.94243C14.2188 3.17826 14.2025 2.67323 14.3269 2.24007L11.6358 1.46689ZM11.5905 6.14478C11.4762 6.92895 10.8741 7.71594 10.2332 7.96965L11.2638 10.5731C12.9443 9.90784 14.12 8.20433 14.3612 6.54845L11.5905 6.14478ZM10.2332 7.96966C10.0404 8.04597 9.92082 8.04894 9.86207 8.04306C9.80697 8.03755 9.76394 8.02071 9.71915 7.98799C9.61635 7.9129 9.43321 7.68725 9.35907 7.22294L6.5941 7.66444C6.75033 8.64289 7.21237 9.62433 8.06754 10.249C8.98035 10.9158 10.1316 11.0213 11.2638 10.5731L10.2332 7.96966ZM9.35907 7.22295C9.31983 6.97718 9.30309 6.70382 9.29133 6.36639C9.28048 6.05513 9.27342 5.64884 9.24287 5.26403C9.17969 4.46817 9.00241 3.47719 8.29691 2.57907L6.09501 4.30871C6.2999 4.56954 6.40572 4.90703 6.45165 5.48561C6.47566 5.78801 6.47966 6.08043 6.49303 6.46394C6.50548 6.82129 6.52613 7.23875 6.5941 7.66443L9.35907 7.22295ZM8.2968 2.57893C8.28607 2.56527 8.17188 2.41936 8.04924 2.28608C8.00868 2.242 7.87932 2.10045 7.71419 1.98399C7.66539 1.94958 7.57835 1.89196 7.46216 1.83958C7.36732 1.79683 7.12013 1.69521 6.78988 1.71437C6.37108 1.73868 5.93928 1.9549 5.67689 2.37068C5.47036 2.69794 5.45726 3.01285 5.45726 3.13469H8.25726C8.25726 3.24133 8.24665 3.54516 8.0448 3.86501C7.78708 4.27339 7.36214 4.48587 6.9521 4.50967C6.63059 4.52833 6.39403 4.42943 6.31141 4.39218C6.20744 4.34531 6.13419 4.29599 6.10048 4.27221C5.99569 4.19831 5.94721 4.13682 5.9888 4.18201C6.03044 4.22727 6.0856 4.29673 6.09513 4.30885L8.2968 2.57893ZM5.45781 3.09544C5.43121 4.04409 4.93706 4.9503 4.23092 6.16346L6.65084 7.57201C7.28298 6.48598 8.20666 4.95859 8.25671 3.17393L5.45781 3.09544ZM4.23093 6.16345C3.14182 8.03452 2.29045 10.3455 2.09263 12.6929C1.894 15.0497 2.35193 17.5346 4.00699 19.5788L6.18315 17.8169C5.10131 16.4807 4.72687 14.7776 4.88274 12.928C5.03941 11.0689 5.72939 9.15504 6.65083 7.57202L4.23093 6.16345ZM4.00698 19.5788C7.69095 24.129 14.9359 23.7773 18.2462 19.0229L15.9483 17.423C13.6835 20.6758 8.67195 20.8909 6.18315 17.8169L4.00698 19.5788ZM18.2493 19.0184C19.2849 17.5185 19.8707 15.7542 19.9379 13.9328L17.1398 13.8296C17.0923 15.1182 16.6778 16.3664 15.9452 17.4276L18.2493 19.0184ZM19.9371 13.9504C20.1247 10.1602 18.3649 6.30198 16.4686 3.51515L14.1537 5.09031C15.8962 7.65112 17.2848 10.8967 17.1405 13.8119L19.9371 13.9504Z" fill="#3F63C8" mask="url(#path-1-inside-1_160_216)"/>
</svg>
