<svg width="18" height="18" viewBox="0 0 18 18" fill="none" xmlns="http://www.w3.org/2000/svg">
<g clip-path="url(#clip0_55_33)">
<path d="M17.9905 9.16838C17.9905 8.43093 17.9292 7.89279 17.7967 7.33472H9.17926V10.6632H14.2375C14.1356 11.4904 13.5849 12.7361 12.3611 13.5732L12.3439 13.6846L15.0686 15.7472L15.2574 15.7657C16.991 14.201 17.9905 11.899 17.9905 9.16838Z" fill="#4285F4"/>
<path d="M9.17927 17.9382C11.6574 17.9382 13.7378 17.1409 15.2574 15.7657L12.3611 13.5732C11.586 14.1014 10.5458 14.4701 9.17927 14.4701C6.75212 14.4701 4.69211 12.9055 3.95777 10.743L3.85013 10.7519L1.01697 12.8945L0.979919 12.9952C2.48923 15.9251 5.58948 17.9382 9.17927 17.9382Z" fill="#34A853"/>
<path d="M3.95777 10.743C3.764 10.1849 3.65187 9.58692 3.65187 8.96908C3.65187 8.35117 3.764 7.75325 3.94757 7.19519L3.94244 7.07633L1.07377 4.89929L0.979916 4.94292C0.357855 6.15874 0.000915527 7.52406 0.000915527 8.96908C0.000915527 10.4141 0.357855 11.7793 0.979916 12.9952L3.95777 10.743Z" fill="#FBBC05"/>
<path d="M9.17927 3.46802C10.9027 3.46802 12.0653 4.19551 12.7282 4.80346L15.3185 2.33196C13.7277 0.886947 11.6574 0 9.17927 0C5.58948 0 2.48923 2.01305 0.979919 4.94292L3.94757 7.19519C4.69211 5.03265 6.75212 3.46802 9.17927 3.46802Z" fill="#EB4335"/>
</g>
<defs>
<clipPath id="clip0_55_33">
<rect width="18" height="18" fill="white"/>
</clipPath>
</defs>
</svg>
