<svg width="20" height="23" viewBox="0 0 20 23" fill="none" xmlns="http://www.w3.org/2000/svg">
<path d="M15.733 6.02621C14.2635 5.25121 13.024 5.49571 11.8255 5.73321C11.381 5.82959 10.9315 5.90103 10.479 5.94721C10.4623 5.71077 10.4338 5.47531 10.3935 5.24171C10.7977 5.37045 11.2193 5.43655 11.6435 5.43771C12.646 5.43461 13.6134 5.06874 14.3671 4.40772C15.1208 3.7467 15.6097 2.83522 15.7435 1.84171C15.7584 1.73189 15.7363 1.62025 15.6809 1.52432C15.6254 1.42838 15.5396 1.3536 15.437 1.31171C14.9208 1.09919 14.3669 0.993272 13.8087 1.00033C13.2505 1.00739 12.6995 1.12728 12.1889 1.35279C11.6782 1.5783 11.2184 1.90477 10.8372 2.31256C10.456 2.72035 10.1612 3.20104 9.9705 3.72571C9.60098 2.76891 9.05081 1.89214 8.35 1.14321C8.25404 1.05877 8.12938 1.0143 8.00164 1.01892C7.8739 1.02354 7.75278 1.0769 7.66317 1.16805C7.57355 1.2592 7.52225 1.38121 7.5198 1.50901C7.51735 1.63681 7.56394 1.7607 7.65 1.85521C8.68043 2.987 9.32108 4.41918 9.478 5.94171C9.04133 5.89494 8.6074 5.82535 8.178 5.73321C6.978 5.49571 5.741 5.25071 4.2705 6.02621C1.977 7.23421 1 9.09971 1 12.2702C1 14.6522 1.9815 18.2512 4.137 20.5252C4.55272 20.9968 5.06562 21.3728 5.64045 21.6273C6.21528 21.8818 6.83841 22.0089 7.467 21.9997C7.97613 21.9893 8.48367 21.9391 8.985 21.8497C9.32018 21.7877 9.65939 21.7497 10 21.7362C10.3406 21.7492 10.6798 21.7867 11.015 21.8482C12.3375 22.0532 14.147 22.3342 15.865 20.5252C18.0185 18.2497 19 14.6522 19 12.2702C19 9.09971 18.023 7.23421 15.733 6.02621ZM12.29 2.42071C12.6471 2.21358 13.0416 2.07919 13.4509 2.02529C13.8601 1.9714 14.276 1.99907 14.6745 2.10671C14.5676 2.50542 14.3833 2.87917 14.1319 3.20663C13.8806 3.53408 13.5673 3.80882 13.2097 4.01516C12.8522 4.22149 12.4576 4.35538 12.0483 4.40918C11.639 4.46298 11.2232 4.43564 10.8245 4.32871C10.9306 3.92964 11.1148 3.55555 11.3663 3.22806C11.6179 2.90056 11.9318 2.62616 12.29 2.42071ZM15.137 19.8372C13.7825 21.2662 12.453 21.0597 11.1685 20.8602C10.7827 20.7893 10.3921 20.7479 10 20.7362C9.60792 20.7479 9.21729 20.7893 8.8315 20.8602C7.546 21.0602 6.218 21.2662 4.863 19.8372C2.896 17.7622 2 14.4602 2 12.2702C2 9.02021 3.093 7.77621 4.733 6.91071C5.23693 6.63748 5.80177 6.4961 6.375 6.49971C6.91568 6.51879 7.45321 6.59047 7.98 6.71371C8.64305 6.86634 9.31982 6.95161 10 6.96821C10.6802 6.95161 11.357 6.86634 12.02 6.71371C13.1415 6.49171 14.11 6.30021 15.267 6.91021C16.907 7.77621 18 9.01871 18 12.2702C18 14.4602 17.104 17.7622 15.137 19.8372Z" fill="#8B8C93" stroke="#8B8C93" stroke-width="0.4"/>
<path d="M6.3705 7.99969C6.0426 7.99597 5.71942 8.07802 5.433 8.23769C4.1795 8.89969 3.5 9.73719 3.5 12.2702C3.5 12.4028 3.55268 12.53 3.64645 12.6237C3.74021 12.7175 3.86739 12.7702 4 12.7702C4.13261 12.7702 4.25979 12.7175 4.35355 12.6237C4.44732 12.53 4.5 12.4028 4.5 12.2702C4.5 9.86019 5.18 9.50169 5.9 9.12019C6.0426 9.03711 6.20552 8.99538 6.3705 8.99969C6.50311 8.99969 6.63029 8.94702 6.72405 8.85325C6.81782 8.75948 6.8705 8.6323 6.8705 8.49969C6.8705 8.36709 6.81782 8.23991 6.72405 8.14614C6.63029 8.05237 6.50311 7.99969 6.3705 7.99969Z" fill="#8B8C93"/>
</svg>
