<svg width="29" height="28" viewBox="0 0 29 28" fill="none" xmlns="http://www.w3.org/2000/svg">
<path d="M4.7921 21.42C4.25544 21.42 3.7071 21.28 3.2171 20.9883C2.22543 20.4167 1.64209 19.4017 1.64209 18.2583V9.71832C1.64209 8.57498 2.22543 7.55999 3.2171 6.98832C4.20876 6.41665 5.38708 6.41665 6.36708 6.98832L13.7638 11.2583C14.1021 11.4567 14.3704 11.69 14.5804 11.9467C14.7088 12.0983 14.7788 12.2967 14.7788 12.495V15.4817C14.7788 15.68 14.7088 15.8783 14.5804 16.03C14.3704 16.2867 14.1021 16.52 13.7871 16.7067L6.36708 21C5.87708 21.28 5.34044 21.42 4.7921 21.42ZM4.7921 8.33002C4.5471 8.33002 4.31376 8.38832 4.0921 8.51665C3.64876 8.77332 3.39209 9.22833 3.39209 9.72999V18.27C3.39209 18.7717 3.64876 19.2267 4.0921 19.4833C4.53543 19.74 5.04874 19.74 5.49208 19.4833L12.8888 15.2133C12.9354 15.19 12.9821 15.155 13.0171 15.12V12.8683C12.9704 12.8333 12.9238 12.7983 12.8771 12.775L5.49208 8.51665C5.27041 8.38832 5.0371 8.33002 4.7921 8.33002Z" fill="white"/>
<path d="M16.1783 21.42C15.6416 21.42 15.0933 21.28 14.6033 20.9883C13.6116 20.4167 13.0283 19.4017 13.0283 18.2583V9.71832C13.0283 8.57498 13.6116 7.55999 14.6033 6.98832C15.595 6.41665 16.7733 6.41665 17.7533 6.98832L25.15 11.2583C26.13 11.83 26.725 12.845 26.725 13.9883C26.725 15.1317 26.1416 16.1467 25.15 16.7183L17.7533 20.9883C17.2633 21.28 16.715 21.42 16.1783 21.42ZM16.1783 8.33002C15.9333 8.33002 15.7 8.38832 15.4783 8.51665C15.035 8.77332 14.7783 9.21666 14.7783 9.72999V18.27C14.7783 18.7717 15.035 19.2267 15.4783 19.4833C15.9216 19.74 16.4466 19.74 16.8783 19.4833L24.275 15.2133C24.7183 14.9567 24.975 14.5017 24.975 14C24.975 13.4983 24.7183 13.0433 24.275 12.7867L16.8783 8.51665C16.6566 8.38832 16.4233 8.33002 16.1783 8.33002Z" fill="white"/>
</svg>
