<svg width="20" height="22" viewBox="0 0 20 22" fill="none" xmlns="http://www.w3.org/2000/svg">
<path fill-rule="evenodd" clip-rule="evenodd" d="M2.98847 20.9997C2.79254 20.9056 2.57108 20.8843 2.37434 20.7884C1.54806 20.3849 1.06872 19.7362 1.02273 18.8516C0.963711 17.7144 1.00466 16.5785 1.32581 15.4675C1.7892 13.8653 2.63967 12.4912 3.90248 11.3582C4.71893 10.6259 5.82356 10.5082 6.76948 11.0733C7.94669 11.7764 9.22359 12.0471 10.5912 11.933C11.4874 11.8582 12.3402 11.6143 13.0953 11.1369C14.1129 10.4936 15.3492 10.6272 16.2395 11.4874C17.7025 12.9004 18.6009 14.5801 18.8925 16.5534C19.0135 17.3724 19.035 18.2018 18.9435 19.0254C18.8308 20.0405 18.0075 20.8274 16.9616 20.9664C16.9467 20.9684 16.9345 20.9884 16.9212 21C12.2769 20.9997 7.63298 20.9997 2.98847 20.9997ZM9.9959 20.2184C11.2037 20.2184 12.4117 20.2184 13.6198 20.2184C14.605 20.2184 15.5903 20.2226 16.5756 20.2172C17.3816 20.2126 18.0816 19.6608 18.1258 18.9328C18.175 18.1221 18.1867 17.3052 18.0476 16.4988C17.7871 14.9847 17.1363 13.644 16.08 12.4925C15.8926 12.2881 15.6929 12.0925 15.4848 11.9076C14.9549 11.4374 14.2461 11.3841 13.6033 11.7638C12.1033 12.6504 10.4856 12.9263 8.75755 12.644C7.89139 12.5025 7.09249 12.1971 6.34729 11.7494C5.73955 11.3843 5.0244 11.443 4.51581 11.8887C4.06519 12.2838 3.66188 12.7202 3.31414 13.2032C2.31745 14.5889 1.83226 16.128 1.83014 17.8116C1.82987 18.098 1.82615 18.3844 1.83094 18.6708C1.84582 19.5946 2.49823 20.2172 3.45638 20.2179C5.63613 20.2197 7.81615 20.2184 9.9959 20.2184Z" fill="#8B8C93" stroke="#8B8C93" stroke-width="0.5"/>
<path fill-rule="evenodd" clip-rule="evenodd" d="M10.522 1.00026C10.7863 1.05308 11.0537 1.09564 11.3148 1.16051C13.3284 1.6605 14.8735 3.32302 15.1724 5.3045C15.5717 7.95392 13.7349 10.4644 11.012 10.9905C8.14739 11.5438 5.3543 9.69029 4.84811 6.89933C4.35017 4.15453 6.24014 1.56922 9.1042 1.06923C9.21134 1.05051 9.33337 1.07743 9.42828 1C9.79303 1.00026 10.1575 1.00026 10.522 1.00026ZM9.99216 10.2972C12.421 10.2975 14.4051 8.39032 14.4096 6.05064C14.4144 3.7148 12.4322 1.79459 10.0081 1.7869C7.57686 1.77895 5.57948 3.69993 5.58108 6.04448C5.58267 8.38391 7.56676 10.2967 9.99216 10.2972Z" fill="#8B8C93" stroke="#8B8C93" stroke-width="0.5"/>
</svg>
