<svg width="20" height="22" viewBox="0 0 20 22" fill="none" xmlns="http://www.w3.org/2000/svg">
<path fill-rule="evenodd" clip-rule="evenodd" d="M3.55932 21.9999C3.29332 21.8838 2.99483 21.8858 2.71853 21.7989C1.1484 21.3044 0.210323 20.3091 0.0570191 18.7969C-0.12559 16.995 0.126764 15.2238 0.866827 13.5373C1.30799 12.5321 1.9675 11.6643 3.04683 11.1286C3.73423 10.7874 4.47195 10.6395 5.24575 10.6269C5.51133 10.6226 5.7451 10.7283 5.96488 10.8546C6.31461 11.0556 6.65764 11.2665 7.00938 11.4644C9.00635 12.5891 11.0047 12.5893 12.9999 11.4604C13.2849 11.299 13.5747 11.1419 13.8418 10.9579C14.3142 10.6324 14.8351 10.5913 15.3954 10.6651C16.9484 10.8694 18.0519 11.6431 18.7965 12.8877C19.4647 14.0047 19.7484 15.2201 19.9048 16.4696C19.9834 17.0963 20.0101 17.7252 19.9967 18.3557C19.9546 20.339 18.5661 21.7339 16.4116 21.9577C16.3789 21.961 16.3513 21.9655 16.3437 22C12.0821 21.9999 7.82069 21.9999 3.55932 21.9999Z" fill="#3F63C8"/>
<path fill-rule="evenodd" clip-rule="evenodd" d="M10.4434 0C10.7089 0.0973366 10.9966 0.0938796 11.2714 0.156722C13.5015 0.667144 15.2392 2.42374 15.556 4.5033C15.9299 6.95676 14.5765 9.21963 12.0967 10.185C9.97922 11.0093 7.3661 10.6406 5.65883 8.93254C4.01995 7.29303 3.62468 5.38186 4.49653 3.34187C5.29947 1.46297 6.87923 0.351395 9.08586 0.0447887C9.13392 0.038105 9.19931 0.066991 9.22593 0C9.63167 0 10.0375 0 10.4434 0Z" fill="#3F63C8"/>
</svg>
