<svg width="18" height="18" viewBox="0 0 18 18" fill="none" xmlns="http://www.w3.org/2000/svg">
<path d="M11.3438 14.295H5.34375C5.03625 14.295 4.78125 14.04 4.78125 13.7325C4.78125 13.425 5.03625 13.17 5.34375 13.17H11.3438C13.0988 13.17 14.5312 11.7375 14.5312 9.98254C14.5312 8.22754 13.0988 6.79504 11.3438 6.79504H3.09375C2.78625 6.79504 2.53125 6.54004 2.53125 6.23254C2.53125 5.92504 2.78625 5.67004 3.09375 5.67004H11.3438C13.7213 5.67004 15.6562 7.60504 15.6562 9.98254C15.6562 12.36 13.7213 14.295 11.3438 14.295Z" fill="#B8BFD3"/>
<path d="M4.81852 8.67005C4.67602 8.67005 4.53352 8.61755 4.42102 8.50505L2.50102 6.58505C2.28352 6.36755 2.28352 6.00755 2.50102 5.79005L4.42102 3.87005C4.63852 3.65255 4.99852 3.65255 5.21602 3.87005C5.43352 4.08755 5.43352 4.44755 5.21602 4.66505L3.69352 6.18755L5.21602 7.71005C5.43352 7.92755 5.43352 8.28755 5.21602 8.50505C5.11102 8.61755 4.96102 8.67005 4.81852 8.67005Z" fill="#B8BFD3"/>
</svg>
