<svg width="20" height="20" viewBox="0 0 20 20" fill="none" xmlns="http://www.w3.org/2000/svg">
<path d="M12.0833 9.5H7.91663C7.57496 9.5 7.29163 9.21667 7.29163 8.875C7.29163 8.53333 7.57496 8.25 7.91663 8.25H12.0833C12.425 8.25 12.7083 8.53333 12.7083 8.875C12.7083 9.21667 12.425 9.5 12.0833 9.5Z" fill="#1F1F1F"/>
<path d="M4.1083 18.9583C3.7583 18.9583 3.4333 18.875 3.14163 18.7083C2.49997 18.3333 2.1333 17.575 2.1333 16.6333V4.88332C2.1333 2.76666 3.8583 1.04166 5.97497 1.04166H14.0166C16.1333 1.04166 17.8583 2.76666 17.8583 4.88332V16.625C17.8583 17.5667 17.4916 18.325 16.85 18.7C16.2083 19.075 15.3666 19.0333 14.5416 18.575L10.475 16.3167C10.2333 16.1833 9.7583 16.1833 9.51663 16.3167L5.44997 18.575C4.99997 18.825 4.54163 18.9583 4.1083 18.9583ZM5.9833 2.29166C4.5583 2.29166 3.39163 3.45832 3.39163 4.88332V16.625C3.39163 17.1167 3.5333 17.4833 3.7833 17.625C4.0333 17.775 4.42497 17.725 4.84997 17.4833L8.91663 15.225C9.5333 14.8833 10.4666 14.8833 11.0833 15.225L15.15 17.4833C15.575 17.725 15.9666 17.775 16.2166 17.625C16.4666 17.475 16.6083 17.1083 16.6083 16.625V4.88332C16.6083 3.45832 15.4416 2.29166 14.0166 2.29166H5.9833Z" fill="#1F1F1F"/>
</svg>
