<svg width="20" height="20" viewBox="0 0 20 20" fill="none" xmlns="http://www.w3.org/2000/svg">
<path d="M10 13.125C8.275 13.125 6.875 11.725 6.875 10C6.875 8.275 8.275 6.875 10 6.875C11.725 6.875 13.125 8.275 13.125 10C13.125 11.725 11.725 13.125 10 13.125ZM10 8.125C8.96667 8.125 8.125 8.96667 8.125 10C8.125 11.0333 8.96667 11.875 10 11.875C11.0333 11.875 11.875 11.0333 11.875 10C11.875 8.96667 11.0333 8.125 10 8.125Z" fill="#1F1F1F"/>
<path d="M12.675 18.4917C12.5 18.4917 12.325 18.4667 12.15 18.425C11.6333 18.2833 11.2 17.9583 10.925 17.5L10.825 17.3333C10.3333 16.4833 9.65829 16.4833 9.16663 17.3333L9.07496 17.4917C8.79996 17.9583 8.36663 18.2917 7.84996 18.425C7.32496 18.5667 6.78329 18.4917 6.32496 18.2167L4.89163 17.3917C4.38329 17.1 4.01663 16.625 3.85829 16.05C3.70829 15.475 3.78329 14.8833 4.07496 14.375C4.31663 13.95 4.38329 13.5667 4.24163 13.325C4.09996 13.0833 3.74163 12.9417 3.24996 12.9417C2.03329 12.9417 1.04163 11.95 1.04163 10.7333V9.26668C1.04163 8.05001 2.03329 7.05835 3.24996 7.05835C3.74163 7.05835 4.09996 6.91668 4.24163 6.67501C4.38329 6.43335 4.32496 6.05001 4.07496 5.62501C3.78329 5.11668 3.70829 4.51668 3.85829 3.95001C4.00829 3.37501 4.37496 2.90001 4.89163 2.60835L6.33329 1.78335C7.27496 1.22501 8.51663 1.55001 9.08329 2.50835L9.18329 2.67501C9.67496 3.52501 10.35 3.52501 10.8416 2.67501L10.9333 2.51668C11.5 1.55001 12.7416 1.22501 13.6916 1.79168L15.125 2.61668C15.6333 2.90835 16 3.38335 16.1583 3.95835C16.3083 4.53335 16.2333 5.12502 15.9416 5.63335C15.7 6.05835 15.6333 6.44168 15.775 6.68335C15.9166 6.92502 16.275 7.06668 16.7666 7.06668C17.9833 7.06668 18.975 8.05835 18.975 9.27501V10.7417C18.975 11.9583 17.9833 12.95 16.7666 12.95C16.275 12.95 15.9166 13.0917 15.775 13.3333C15.6333 13.575 15.6916 13.9583 15.9416 14.3833C16.2333 14.8917 16.3166 15.4917 16.1583 16.0583C16.0083 16.6333 15.6416 17.1083 15.125 17.4L13.6833 18.225C13.3666 18.4 13.025 18.4917 12.675 18.4917ZM9.99996 15.4083C10.7416 15.4083 11.4333 15.875 11.9083 16.7L12 16.8583C12.1 17.0333 12.2666 17.1583 12.4666 17.2083C12.6666 17.2583 12.8666 17.2333 13.0333 17.1333L14.475 16.3C14.6916 16.175 14.8583 15.9667 14.925 15.7167C14.9916 15.4667 14.9583 15.2083 14.8333 14.9917C14.3583 14.175 14.3 13.3333 14.6666 12.6917C15.0333 12.05 15.7916 11.6833 16.7416 11.6833C17.275 11.6833 17.7 11.2583 17.7 10.725V9.25835C17.7 8.73335 17.275 8.30001 16.7416 8.30001C15.7916 8.30001 15.0333 7.93335 14.6666 7.29168C14.3 6.65001 14.3583 5.80835 14.8333 4.99168C14.9583 4.77501 14.9916 4.51668 14.925 4.26668C14.8583 4.01668 14.7 3.81668 14.4833 3.68335L13.0416 2.85835C12.6833 2.64168 12.2083 2.76668 11.9916 3.13335L11.9 3.29168C11.425 4.11668 10.7333 4.58335 9.99163 4.58335C9.24996 4.58335 8.55829 4.11668 8.08329 3.29168L7.99163 3.12501C7.78329 2.77501 7.31663 2.65001 6.95829 2.85835L5.51663 3.69168C5.29996 3.81668 5.13329 4.02501 5.06663 4.27501C4.99996 4.52501 5.03329 4.78335 5.15829 5.00002C5.63329 5.81668 5.69163 6.65835 5.32496 7.30001C4.95829 7.94168 4.19996 8.30835 3.24996 8.30835C2.71663 8.30835 2.29163 8.73335 2.29163 9.26668V10.7333C2.29163 11.2583 2.71663 11.6917 3.24996 11.6917C4.19996 11.6917 4.95829 12.0583 5.32496 12.7C5.69163 13.3417 5.63329 14.1833 5.15829 15C5.03329 15.2167 4.99996 15.475 5.06663 15.725C5.13329 15.975 5.29163 16.175 5.50829 16.3083L6.94996 17.1333C7.12496 17.2417 7.33329 17.2667 7.52496 17.2167C7.72496 17.1667 7.89163 17.0333 7.99996 16.8583L8.09163 16.7C8.56663 15.8833 9.25829 15.4083 9.99996 15.4083Z" fill="#1F1F1F"/>
</svg>
