<svg width="22" height="22" viewBox="0 0 22 22" fill="none" xmlns="http://www.w3.org/2000/svg">
<path d="M15.7483 4.8125C14.1808 4.8125 12.3108 5.40833 12.3108 8.25V13.75C12.3108 16.5917 14.1808 17.1875 15.7483 17.1875C17.3158 17.1875 19.1858 16.5917 19.1858 13.75V8.25C19.1858 5.40833 17.3158 4.8125 15.7483 4.8125Z" fill="white"/>
<path d="M6.25171 4.8125C4.68421 4.8125 2.81421 5.40833 2.81421 8.25V13.75C2.81421 16.5917 4.68421 17.1875 6.25171 17.1875C7.81921 17.1875 9.68921 16.5917 9.68921 13.75V8.25C9.68921 5.40833 7.81921 4.8125 6.25171 4.8125Z" fill="white"/>
<path d="M12.3109 10.3125H9.68921V11.6875H12.3109V10.3125Z" fill="white"/>
<path d="M20.625 13.9791C20.2492 13.9791 19.9375 13.6675 19.9375 13.2916V8.70831C19.9375 8.33248 20.2492 8.02081 20.625 8.02081C21.0008 8.02081 21.3125 8.33248 21.3125 8.70831V13.2916C21.3125 13.6675 21.0008 13.9791 20.625 13.9791Z" fill="white"/>
<path d="M1.375 13.9791C0.999167 13.9791 0.6875 13.6675 0.6875 13.2916V8.70831C0.6875 8.33248 0.999167 8.02081 1.375 8.02081C1.75083 8.02081 2.0625 8.33248 2.0625 8.70831V13.2916C2.0625 13.6675 1.75083 13.9791 1.375 13.9791Z" fill="white"/>
</svg>
