<svg width="24" height="24" viewBox="0 0 24 24" fill="none" xmlns="http://www.w3.org/2000/svg">
<path d="M17.1801 18.75C15.4701 18.75 13.4301 18.1 13.4301 15V9C13.4301 5.9 15.4701 5.25 17.1801 5.25C18.8901 5.25 20.9301 5.9 20.9301 9V15C20.9301 18.1 18.8901 18.75 17.1801 18.75ZM17.1801 6.75C15.5601 6.75 14.9301 7.38 14.9301 9V15C14.9301 16.62 15.5601 17.25 17.1801 17.25C18.8001 17.25 19.4301 16.62 19.4301 15V9C19.4301 7.38 18.8001 6.75 17.1801 6.75Z" fill="#8B8C93"/>
<path d="M6.81995 18.75C5.10995 18.75 3.06995 18.1 3.06995 15V9C3.06995 5.9 5.10995 5.25 6.81995 5.25C8.52995 5.25 10.5699 5.9 10.5699 9V15C10.5699 18.1 8.52995 18.75 6.81995 18.75ZM6.81995 6.75C5.19995 6.75 4.56995 7.38 4.56995 9V15C4.56995 16.62 5.19995 17.25 6.81995 17.25C8.43995 17.25 9.06995 16.62 9.06995 15V9C9.06995 7.38 8.43995 6.75 6.81995 6.75Z" fill="#8B8C93"/>
<path d="M14.1799 12.75H9.81995C9.40995 12.75 9.06995 12.41 9.06995 12C9.06995 11.59 9.40995 11.25 9.81995 11.25H14.1799C14.5899 11.25 14.9299 11.59 14.9299 12C14.9299 12.41 14.5999 12.75 14.1799 12.75Z" fill="#8B8C93"/>
<path d="M22.5 15.25C22.09 15.25 21.75 14.91 21.75 14.5V9.5C21.75 9.09 22.09 8.75 22.5 8.75C22.91 8.75 23.25 9.09 23.25 9.5V14.5C23.25 14.91 22.91 15.25 22.5 15.25Z" fill="#8B8C93"/>
<path d="M1.5 15.25C1.09 15.25 0.75 14.91 0.75 14.5V9.5C0.75 9.09 1.09 8.75 1.5 8.75C1.91 8.75 2.25 9.09 2.25 9.5V14.5C2.25 14.91 1.91 15.25 1.5 15.25Z" fill="#8B8C93"/>
</svg>
